<svg xmlns="http://www.w3.org/2000/svg" viewBox="0 0 720 520" role="img" aria-labelledby="title desc">
  <title id="title">Blocked outreach illustration</title>
  <desc id="desc">A stylized inbox full of ignored messages and a closed decision maker door.</desc>
  <defs>
    <linearGradient id="bg" x1="65" y1="40" x2="600" y2="480" gradientUnits="userSpaceOnUse">
      <stop stop-color="#fff8ef"/>
      <stop offset="1" stop-color="#ffe1c4"/>
    </linearGradient>
    <linearGradient id="orange" x1="130" y1="130" x2="500" y2="450" gradientUnits="userSpaceOnUse">
      <stop stop-color="#ff8a1f"/>
      <stop offset="1" stop-color="#f15a16"/>
    </linearGradient>
  </defs>
  <rect x="28" y="28" width="664" height="464" rx="42" fill="url(#bg)"/>
  <circle cx="616" cy="92" r="58" fill="#08111f" opacity=".08"/>
  <circle cx="112" cy="424" r="72" fill="#ff7a1a" opacity=".12"/>
  <rect x="86" y="96" width="346" height="294" rx="30" fill="#fff" stroke="#eadbc9" stroke-width="4"/>
  <path d="M86 146h346" stroke="#eadbc9" stroke-width="4"/>
  <rect x="122" y="184" width="242" height="38" rx="19" fill="#f3eee8"/>
  <rect x="122" y="246" width="206" height="38" rx="19" fill="#f3eee8"/>
  <rect x="122" y="308" width="268" height="38" rx="19" fill="#f3eee8"/>
  <circle cx="376" cy="203" r="18" fill="#ff7a1a"/>
  <circle cx="340" cy="265" r="18" fill="#ff7a1a"/>
  <circle cx="402" cy="327" r="18" fill="#ff7a1a"/>
  <path d="M470 132h116c20 0 36 16 36 36v222H470V132Z" fill="#08111f"/>
  <path d="M515 390V218c0-19 15-34 34-34s34 15 34 34v172" fill="#fff8ef"/>
  <circle cx="560" cy="286" r="9" fill="url(#orange)"/>
  <path d="M460 390h174" stroke="#08111f" stroke-width="26" stroke-linecap="round"/>
  <path d="M96 116l126 86a63 63 0 0 0 72 0l126-86" fill="none" stroke="url(#orange)" stroke-width="9" stroke-linecap="round"/>
  <text x="112" y="454" font-family="Space Grotesk, Arial, sans-serif" font-size="34" font-weight="800" fill="#08111f">COLD OUTREACH</text>
  <text x="438" y="454" font-family="Space Grotesk, Arial, sans-serif" font-size="34" font-weight="800" fill="#ff7a1a">GETS STUCK</text>
</svg>
