<svg xmlns="http://www.w3.org/2000/svg" viewBox="0 0 720 520" role="img" aria-labelledby="title desc">
  <title id="title">Trusted connector illustration</title>
  <desc id="desc">A trusted connector bridges a client and decision maker.</desc>
  <defs>
    <linearGradient id="navy" x1="55" y1="65" x2="680" y2="470" gradientUnits="userSpaceOnUse">
      <stop stop-color="#08111f"/>
      <stop offset="1" stop-color="#17243a"/>
    </linearGradient>
    <linearGradient id="orange" x1="230" y1="105" x2="500" y2="405" gradientUnits="userSpaceOnUse">
      <stop stop-color="#ff8a1f"/>
      <stop offset="1" stop-color="#f15a16"/>
    </linearGradient>
  </defs>
  <rect x="28" y="28" width="664" height="464" rx="42" fill="url(#navy)"/>
  <path d="M144 272c58-92 122-138 192-138s134 46 192 138" fill="none" stroke="#fff8ef" stroke-width="22" stroke-linecap="round" opacity=".18"/>
  <path d="M144 272c58-92 122-138 192-138s134 46 192 138" fill="none" stroke="#ff7a1a" stroke-width="10" stroke-linecap="round"/>
  <circle cx="144" cy="294" r="72" fill="#fff8ef"/>
  <circle cx="144" cy="274" r="31" fill="#08111f"/>
  <path d="M91 354c12-32 31-48 53-48s41 16 53 48" fill="#08111f"/>
  <circle cx="576" cy="294" r="72" fill="#fff8ef"/>
  <circle cx="576" cy="274" r="31" fill="#08111f"/>
  <path d="M523 354c12-32 31-48 53-48s41 16 53 48" fill="#08111f"/>
  <circle cx="360" cy="160" r="86" fill="url(#orange)"/>
  <circle cx="360" cy="137" r="34" fill="#fff8ef"/>
  <path d="M298 222c14-39 35-58 62-58s48 19 62 58" fill="#fff8ef"/>
  <rect x="272" y="300" width="176" height="78" rx="24" fill="#fff8ef"/>
  <path d="M314 340h92" stroke="#08111f" stroke-width="10" stroke-linecap="round"/>
  <path d="M360 300v-44" stroke="#fff8ef" stroke-width="12" stroke-linecap="round"/>
  <text x="88" y="444" font-family="Space Grotesk, Arial, sans-serif" font-size="32" font-weight="800" fill="#fff8ef">TRUST</text>
  <text x="198" y="444" font-family="Space Grotesk, Arial, sans-serif" font-size="32" font-weight="800" fill="#ff7a1a">MAKES THE INTRO</text>
</svg>
