<svg xmlns="http://www.w3.org/2000/svg" viewBox="0 0 720 520" role="img" aria-labelledby="title desc">
  <title id="title">Revenue loop illustration</title>
  <desc id="desc">An introduction turns into a durable revenue relationship.</desc>
  <defs>
    <linearGradient id="bg" x1="60" y1="40" x2="650" y2="500" gradientUnits="userSpaceOnUse">
      <stop stop-color="#fff8ef"/>
      <stop offset="1" stop-color="#f1f7f4"/>
    </linearGradient>
    <linearGradient id="orange" x1="180" y1="92" x2="520" y2="430" gradientUnits="userSpaceOnUse">
      <stop stop-color="#ff8a1f"/>
      <stop offset="1" stop-color="#f15a16"/>
    </linearGradient>
  </defs>
  <rect x="28" y="28" width="664" height="464" rx="42" fill="url(#bg)"/>
  <circle cx="360" cy="244" r="166" fill="none" stroke="#08111f" stroke-width="20" opacity=".1"/>
  <path d="M500 154a166 166 0 0 1 4 174" fill="none" stroke="url(#orange)" stroke-width="22" stroke-linecap="round"/>
  <path d="M220 336a166 166 0 0 1-1-182" fill="none" stroke="#178b83" stroke-width="22" stroke-linecap="round"/>
  <path d="M506 331l-52-11 32-41" fill="none" stroke="#ff7a1a" stroke-width="19" stroke-linecap="round" stroke-linejoin="round"/>
  <path d="M216 150l52 11-32 41" fill="none" stroke="#178b83" stroke-width="19" stroke-linecap="round" stroke-linejoin="round"/>
  <rect x="232" y="146" width="256" height="198" rx="32" fill="#08111f"/>
  <path d="M300 294h120" stroke="#fff8ef" stroke-width="13" stroke-linecap="round"/>
  <path d="M300 249h74" stroke="#fff8ef" stroke-width="13" stroke-linecap="round"/>
  <path d="M300 204h120" stroke="#ff7a1a" stroke-width="13" stroke-linecap="round"/>
  <circle cx="496" cy="338" r="62" fill="#ff7a1a"/>
  <text x="473" y="360" font-family="Space Grotesk, Arial, sans-serif" font-size="60" font-weight="800" fill="#fff8ef">$</text>
  <rect x="168" y="406" width="384" height="52" rx="26" fill="#08111f"/>
  <text x="214" y="441" font-family="Space Grotesk, Arial, sans-serif" font-size="26" font-weight="800" letter-spacing="3" fill="#fff8ef">VALUE LOOP</text>
  <circle cx="492" cy="432" r="10" fill="#ff7a1a"/>
</svg>
