<svg xmlns="http://www.w3.org/2000/svg" viewBox="0 0 720 520" role="img" aria-labelledby="title desc">
  <title id="title">Revenue loop illustration</title>
  <desc id="desc">An introduction turns into a durable revenue relationship.</desc>
  <defs>
    <linearGradient id="bg" x1="60" y1="40" x2="650" y2="500" gradientUnits="userSpaceOnUse">
      <stop stop-color="#fff8ef"/>
      <stop offset="1" stop-color="#f1f7f4"/>
    </linearGradient>
    <linearGradient id="orange" x1="180" y1="92" x2="520" y2="430" gradientUnits="userSpaceOnUse">
      <stop stop-color="#ff8a1f"/>
      <stop offset="1" stop-color="#f15a16"/>
    </linearGradient>
  </defs>
  <rect x="28" y="28" width="664" height="464" rx="42" fill="url(#bg)"/>
  <circle cx="360" cy="250" r="158" fill="none" stroke="#08111f" stroke-width="18" opacity=".1"/>
  <path d="M493 164a158 158 0 0 1 4 166" fill="none" stroke="url(#orange)" stroke-width="20" stroke-linecap="round"/>
  <path d="M226 337a158 158 0 0 1-1-173" fill="none" stroke="#178b83" stroke-width="20" stroke-linecap="round"/>
  <path d="M499 333l-49-10 31-39" fill="none" stroke="#ff7a1a" stroke-width="18" stroke-linecap="round" stroke-linejoin="round"/>
  <path d="M222 160l49 10-31 39" fill="none" stroke="#178b83" stroke-width="18" stroke-linecap="round" stroke-linejoin="round"/>
  <rect x="246" y="154" width="228" height="178" rx="30" fill="#08111f"/>
  <path d="M302 286h116" stroke="#fff8ef" stroke-width="12" stroke-linecap="round"/>
  <path d="M302 246h66" stroke="#fff8ef" stroke-width="12" stroke-linecap="round"/>
  <path d="M302 206h116" stroke="#ff7a1a" stroke-width="12" stroke-linecap="round"/>
  <circle cx="468" cy="329" r="56" fill="#ff7a1a"/>
  <text x="447" y="349" font-family="Space Grotesk, Arial, sans-serif" font-size="54" font-weight="800" fill="#fff8ef">$</text>
  <text x="92" y="444" font-family="Space Grotesk, Arial, sans-serif" font-size="32" font-weight="800" fill="#08111f">ALIGNED TO</text>
  <text x="312" y="444" font-family="Space Grotesk, Arial, sans-serif" font-size="32" font-weight="800" fill="#ff7a1a">LONG-TERM VALUE</text>
</svg>
