<svg xmlns="http://www.w3.org/2000/svg" viewBox="0 0 128 128" role="img" aria-labelledby="title">
  <title id="title">Trusted Bums mark</title>
  <defs>
    <linearGradient id="orange" x1="28" y1="28" x2="76" y2="76" gradientUnits="userSpaceOnUse">
      <stop stop-color="#ff8a1f"/>
      <stop offset="1" stop-color="#f15a16"/>
    </linearGradient>
    <linearGradient id="ink" x1="52" y1="102" x2="102" y2="44" gradientUnits="userSpaceOnUse">
      <stop stop-color="#08111f"/>
      <stop offset="1" stop-color="#172236"/>
    </linearGradient>
  </defs>
  <rect x="5" y="5" width="118" height="118" rx="30" fill="#fff8ef"/>
  <rect x="13" y="13" width="102" height="102" rx="24" fill="none" stroke="#101827" stroke-width="7"/>
  <path d="M30 31h57v20H68v57H48V51H30V31Z" fill="url(#orange)"/>
  <path d="M61 48h31c15 0 25 8 25 21 0 8-4 14-11 18 8 4 13 10 13 19 0 14-11 23-28 23H61V48Z" fill="url(#ink)" transform="translate(0 -9)"/>
  <path d="M79 59h13c5 0 8 3 8 7s-3 7-8 7H79V59Zm0 29h15c5 0 9 3 9 8s-4 8-9 8H79V88Z" fill="#fff8ef"/>
  <path d="M48 51v57" stroke="#fff8ef" stroke-width="8" stroke-linecap="square"/>
</svg>
