<svg xmlns="http://www.w3.org/2000/svg" viewBox="0 0 1200 630" role="img" aria-label="Trusted Bums warm introductions for hard accounts">
  <defs>
    <linearGradient id="ink" x1="80" y1="60" x2="1120" y2="570" gradientUnits="userSpaceOnUse">
      <stop stop-color="#08111f"/>
      <stop offset="1" stop-color="#17243a"/>
    </linearGradient>
    <linearGradient id="orange" x1="140" y1="90" x2="620" y2="560" gradientUnits="userSpaceOnUse">
      <stop stop-color="#ff8a1f"/>
      <stop offset="1" stop-color="#f15a16"/>
    </linearGradient>
  </defs>

  <rect width="1200" height="630" fill="#fff8ef"/>
  <rect x="54" y="54" width="1092" height="522" rx="34" fill="url(#ink)"/>

  <circle cx="1014" cy="132" r="78" fill="#ff7a1a" opacity=".9"/>
  <circle cx="1040" cy="500" r="124" fill="#178b83" opacity=".18"/>
  <circle cx="180" cy="492" r="102" fill="#ff7a1a" opacity=".16"/>

  <g transform="translate(118 104)">
    <rect width="108" height="108" rx="26" fill="#fff8ef"/>
    <rect x="8" y="8" width="92" height="92" rx="22" fill="none" stroke="#101827" stroke-width="6"/>
    <path d="M28 28h49v17H61v48H44V45H28V28Z" fill="url(#orange)"/>
    <path d="M56 43h26c13 0 22 7 22 18 0 7-4 12-10 15 7 3 11 9 11 17 0 12-10 20-25 20H56V43Z" fill="#08111f" transform="translate(0 -8)"/>
    <path d="M71 52h11c4 0 7 2 7 6s-3 6-7 6H71V52Zm0 25h13c4 0 8 3 8 7s-4 7-8 7H71V77Z" fill="#fff8ef"/>
    <path d="M44 45v48" stroke="#fff8ef" stroke-width="7" stroke-linecap="square"/>
  </g>

  <text x="252" y="156" font-family="Space Grotesk, Arial, sans-serif" font-size="42" font-weight="800" letter-spacing="1.7" fill="#fff8ef">TRUSTED</text>
  <text x="252" y="202" font-family="Space Grotesk, Arial, sans-serif" font-size="42" font-weight="800" letter-spacing="1.7" fill="#ff7a1a">BUMS</text>

  <path d="M132 286c108-56 215-84 320-84 126 0 232 45 318 135 72 76 156 114 252 114" fill="none" stroke="#fff8ef" stroke-width="18" stroke-linecap="round" opacity=".16"/>
  <path d="M132 286c108-56 215-84 320-84 126 0 232 45 318 135 72 76 156 114 252 114" fill="none" stroke="#ff7a1a" stroke-width="8" stroke-linecap="round"/>
  <circle cx="132" cy="286" r="18" fill="#fff8ef"/>
  <circle cx="452" cy="202" r="18" fill="#ff7a1a"/>
  <circle cx="770" cy="327" r="18" fill="#178b83"/>
  <circle cx="1022" cy="456" r="18" fill="#fff8ef"/>

  <text x="128" y="356" font-family="Space Grotesk, Arial, sans-serif" font-size="74" font-weight="800" fill="#fff8ef">Your buyer is</text>
  <text x="128" y="438" font-family="Space Grotesk, Arial, sans-serif" font-size="74" font-weight="800" fill="#ff7a1a">ignoring strangers.</text>
  <text x="132" y="506" font-family="Inter, Arial, sans-serif" font-size="32" font-weight="600" fill="#fff8ef" opacity=".86">Good thing we know a friend.</text>

  <rect x="728" y="118" width="288" height="62" rx="31" fill="#fff8ef" opacity=".12"/>
  <text x="872" y="158" text-anchor="middle" font-family="Space Grotesk, Arial, sans-serif" font-size="24" font-weight="800" letter-spacing="2.2" fill="#fff8ef">HARD ACCOUNTS</text>

  <rect x="810" y="208" width="280" height="62" rx="31" fill="#178b83" opacity=".82"/>
  <text x="950" y="248" text-anchor="middle" font-family="Space Grotesk, Arial, sans-serif" font-size="24" font-weight="800" letter-spacing="2.2" fill="#fff8ef">WARM ROUTES</text>

  <rect x="685" y="498" width="430" height="46" rx="23" fill="#fff8ef"/>
  <text x="900" y="529" text-anchor="middle" font-family="Space Grotesk, Arial, sans-serif" font-size="20" font-weight="800" letter-spacing="2.4" fill="#08111f">RELATIONSHIP-LED REVENUE</text>
</svg>
