<svg xmlns="http://www.w3.org/2000/svg" width="1600" height="900" viewBox="0 0 1600 900" role="img" aria-labelledby="title desc">
  <title>Trusted Bums proof route email hero plate</title>
  <desc>Text-free wide hero illustration showing a qualified account brief, a reviewed proof gate, and an evidence card for campaign assembly.</desc>
  <defs>
    <linearGradient id="paperBg" x1="0%" y1="0%" x2="100%" y2="100%">
      <stop offset="0%" stop-color="#f9f2e8"/>
      <stop offset="100%" stop-color="#f5eee4"/>
    </linearGradient>
    <linearGradient id="inkPanel" x1="0%" y1="0%" x2="100%" y2="100%">
      <stop offset="0%" stop-color="#08111f"/>
      <stop offset="100%" stop-color="#13263f"/>
    </linearGradient>
    <filter id="shadow" x="-20%" y="-20%" width="140%" height="140%">
      <feDropShadow dx="0" dy="16" stdDeviation="24" flood-color="#020712" flood-opacity="0.18"/>
    </filter>
    <filter id="cardShadow" x="-20%" y="-20%" width="140%" height="140%">
      <feDropShadow dx="0" dy="12" stdDeviation="18" flood-color="#020712" flood-opacity="0.14"/>
    </filter>
  </defs>

  <rect width="1600" height="900" fill="url(#paperBg)"/>
  <circle cx="228" cy="170" r="118" fill="#ff8a24" opacity="0.08"/>
  <circle cx="1360" cy="178" r="128" fill="#178b83" opacity="0.06"/>
  <ellipse cx="1350" cy="768" rx="214" ry="134" fill="#178b83" opacity="0.08"/>

  <g filter="url(#shadow)">
    <rect x="104" y="188" width="654" height="528" rx="52" fill="#fbf6ee" stroke="#eadcca" stroke-width="3"/>
    <rect x="178" y="262" width="314" height="40" rx="20" fill="#e5ddd2"/>
    <rect x="178" y="356" width="438" height="34" rx="17" fill="#dfd8cd"/>
    <rect x="178" y="434" width="398" height="34" rx="17" fill="#dfd8cd"/>
    <rect x="178" y="512" width="346" height="34" rx="17" fill="#dfd8cd"/>
    <rect x="178" y="598" width="196" height="34" rx="17" fill="#d9e4dd"/>
    <rect x="394" y="598" width="246" height="34" rx="17" fill="#eee5d8"/>
    <circle cx="636" cy="374" r="17" fill="#ff9537"/>
    <circle cx="592" cy="452" r="17" fill="#ff9537"/>
    <circle cx="548" cy="530" r="17" fill="#ff9537"/>
  </g>

  <path d="M758 374 C 860 374, 860 248, 984 248 L 1110 248" fill="none" stroke="#d7d4cf" stroke-width="20" stroke-linecap="round"/>
  <path d="M758 374 C 860 374, 860 248, 984 248 L 1110 248" fill="none" stroke="#ff7317" stroke-width="12" stroke-linecap="round"/>
  <path d="M758 452 C 858 452, 884 652, 994 652 L 1128 652" fill="none" stroke="#d7d4cf" stroke-width="16" stroke-linecap="round" opacity="0.5"/>
  <path d="M758 452 C 858 452, 884 652, 994 652 L 1128 652" fill="none" stroke="#7fb7ad" stroke-width="9" stroke-linecap="round" opacity="0.74"/>

  <g filter="url(#cardShadow)">
    <rect x="936" y="208" width="108" height="108" rx="32" fill="#fff1e3" stroke="#ffc691" stroke-width="3"/>
    <path d="M990 232 C 968 232, 952 246, 952 270 C 952 306, 990 322, 990 322 C 990 322, 1028 306, 1028 270 C 1028 246, 1012 232, 990 232 Z" fill="#08111f"/>
    <path d="M974 274 L 988 288 L 1010 260" fill="none" stroke="#ff8f31" stroke-width="10" stroke-linecap="round" stroke-linejoin="round"/>
  </g>

  <g filter="url(#shadow)">
    <rect x="1104" y="166" width="352" height="184" rx="38" fill="url(#inkPanel)"/>
    <rect x="1164" y="220" width="166" height="18" rx="9" fill="#33445b"/>
    <rect x="1164" y="256" width="138" height="18" rx="9" fill="#33445b"/>
    <rect x="1164" y="292" width="112" height="18" rx="9" fill="#33445b"/>
    <circle cx="1372" cy="256" r="18" fill="#ff7a1a"/>
  </g>

  <g filter="url(#shadow)">
    <rect x="1120" y="584" width="292" height="136" rx="34" fill="#eef3f0" stroke="#d7e4dd" stroke-width="2"/>
    <rect x="1168" y="626" width="118" height="16" rx="8" fill="#c8dbd3"/>
    <rect x="1168" y="660" width="92" height="16" rx="8" fill="#c8dbd3"/>
    <circle cx="1332" cy="650" r="18" fill="#7fb7ad"/>
  </g>

  <rect x="1344" y="118" width="92" height="92" rx="46" fill="#ff6c16" filter="url(#cardShadow)"/>
  <rect x="1384" y="140" width="12" height="48" rx="6" fill="#fff8ef"/>
  <rect x="1366" y="158" width="48" height="12" rx="6" fill="#fff8ef"/>
</svg>
