<svg xmlns="http://www.w3.org/2000/svg" width="1200" height="628" viewBox="0 0 1200 628" role="img" aria-labelledby="title desc">
  <title>Trusted Bums qualified brief LinkedIn plate</title>
  <desc>Text-free LinkedIn illustration showing a structured client qualification brief routed through a reviewed proof gate.</desc>
  <defs>
    <linearGradient id="inkPanel" x1="0%" y1="0%" x2="100%" y2="100%">
      <stop offset="0%" stop-color="#08111f"/>
      <stop offset="100%" stop-color="#13263f"/>
    </linearGradient>
    <filter id="shadow" x="-20%" y="-20%" width="140%" height="140%">
      <feDropShadow dx="0" dy="18" stdDeviation="24" flood-color="#020712" flood-opacity="0.18"/>
    </filter>
    <filter id="cardShadow" x="-20%" y="-20%" width="140%" height="140%">
      <feDropShadow dx="0" dy="12" stdDeviation="18" flood-color="#020712" flood-opacity="0.14"/>
    </filter>
  </defs>

  <rect width="1200" height="628" fill="#f8f1e7"/>
  <circle cx="206" cy="126" r="118" fill="#ff8a24" opacity="0.1"/>
  <circle cx="1010" cy="132" r="86" fill="#178b83" opacity="0.08"/>
  <ellipse cx="978" cy="540" rx="210" ry="90" fill="#178b83" opacity="0.08"/>

  <g filter="url(#shadow)">
    <rect x="96" y="152" width="408" height="324" rx="42" fill="#fbf6ee" stroke="#eadbca" stroke-width="3"/>
    <rect x="148" y="210" width="186" height="28" rx="14" fill="#e6ded3"/>
    <rect x="148" y="272" width="242" height="26" rx="13" fill="#e0d8cd"/>
    <rect x="148" y="324" width="206" height="26" rx="13" fill="#e0d8cd"/>
    <rect x="148" y="376" width="162" height="26" rx="13" fill="#d6e2da"/>
    <rect x="328" y="376" width="112" height="26" rx="13" fill="#efe6da"/>
    <circle cx="404" cy="284" r="14" fill="#ff9637"/>
    <circle cx="376" cy="336" r="14" fill="#ff9637"/>
    <circle cx="346" cy="388" r="14" fill="#ff9637"/>
    <rect x="148" y="428" width="290" height="12" rx="6" fill="#ece2d6"/>
  </g>

  <path d="M504 284 C 596 284, 594 204, 706 204 L 846 204" fill="none" stroke="#d8d4ce" stroke-width="18" stroke-linecap="round"/>
  <path d="M504 284 C 596 284, 594 204, 706 204 L 846 204" fill="none" stroke="#ff7317" stroke-width="10" stroke-linecap="round"/>
  <path d="M504 336 C 598 336, 624 430, 736 430 L 868 430" fill="none" stroke="#d8d4ce" stroke-width="14" stroke-linecap="round" opacity="0.52"/>
  <path d="M504 336 C 598 336, 624 430, 736 430 L 868 430" fill="none" stroke="#7fb7ad" stroke-width="8" stroke-linecap="round" opacity="0.74"/>

  <g filter="url(#cardShadow)">
    <rect x="650" y="160" width="112" height="112" rx="32" fill="#fff1e3" stroke="#ffc691" stroke-width="3"/>
    <path d="M706 184 C 684 184, 668 198, 668 222 C 668 258, 706 274, 706 274 C 706 274, 744 258, 744 222 C 744 198, 728 184, 706 184 Z" fill="#08111f"/>
    <path d="M690 226 L 704 240 L 726 212" fill="none" stroke="#ff8f31" stroke-width="10" stroke-linecap="round" stroke-linejoin="round"/>
  </g>

  <g filter="url(#shadow)">
    <rect x="820" y="144" width="282" height="152" rx="34" fill="url(#inkPanel)"/>
    <rect x="872" y="190" width="150" height="18" rx="9" fill="#33445b"/>
    <rect x="872" y="226" width="124" height="18" rx="9" fill="#33445b"/>
    <rect x="872" y="262" width="102" height="18" rx="9" fill="#33445b"/>
    <circle cx="1046" cy="226" r="18" fill="#ff7a1a"/>
  </g>

  <g filter="url(#shadow)">
    <rect x="792" y="382" width="286" height="132" rx="32" fill="#eef3f0" stroke="#d7e3dd" stroke-width="2"/>
    <rect x="840" y="422" width="114" height="16" rx="8" fill="#c7d9d1"/>
    <rect x="840" y="456" width="94" height="16" rx="8" fill="#c7d9d1"/>
    <circle cx="998" cy="446" r="17" fill="#7fb7ad"/>
  </g>

  <rect x="1062" y="116" width="78" height="78" rx="26" fill="#ff6c16" filter="url(#cardShadow)"/>
  <rect x="1095" y="132" width="12" height="46" rx="6" fill="#fff8ef"/>
  <rect x="1078" y="149" width="46" height="12" rx="6" fill="#fff8ef"/>

  <path d="M0 520 C 148 492, 292 494, 430 522 S 708 562, 864 528 S 1058 488, 1200 514 L 1200 628 L 0 628 Z" fill="#0b1628"/>
  <path d="M0 540 C 208 580, 402 580, 584 548 S 890 506, 1200 548" fill="none" stroke="#17314b" stroke-width="8" opacity="0.54"/>
</svg>
