<svg xmlns="http://www.w3.org/2000/svg" width="1080" height="1350" viewBox="0 0 1080 1350" role="img" aria-labelledby="title desc">
  <title>Trusted Bums proof gate paid social plate</title>
  <desc>Text-free vertical illustration showing a qualified client brief routed into a reviewed proof gate for hard-account outreach.</desc>
  <defs>
    <linearGradient id="paperBg" x1="0%" y1="0%" x2="100%" y2="100%">
      <stop offset="0%" stop-color="#f8f1e7"/>
      <stop offset="100%" stop-color="#f3ede4"/>
    </linearGradient>
    <linearGradient id="inkPanel" x1="0%" y1="0%" x2="100%" y2="100%">
      <stop offset="0%" stop-color="#08111f"/>
      <stop offset="100%" stop-color="#13263f"/>
    </linearGradient>
    <filter id="shadow" x="-20%" y="-20%" width="140%" height="140%">
      <feDropShadow dx="0" dy="18" stdDeviation="26" flood-color="#04101c" flood-opacity="0.18"/>
    </filter>
    <filter id="cardShadow" x="-20%" y="-20%" width="140%" height="140%">
      <feDropShadow dx="0" dy="12" stdDeviation="18" flood-color="#04101c" flood-opacity="0.14"/>
    </filter>
  </defs>

  <rect width="1080" height="1350" fill="url(#paperBg)"/>
  <circle cx="214" cy="164" r="122" fill="#ff8a24" opacity="0.08"/>
  <circle cx="862" cy="208" r="152" fill="#178b83" opacity="0.08"/>
  <circle cx="164" cy="1180" r="158" fill="#178b83" opacity="0.08"/>

  <g filter="url(#shadow)">
    <rect x="112" y="138" width="572" height="1074" rx="58" fill="#fbf6ee" stroke="#e6d8c9" stroke-width="3"/>
    <rect x="184" y="216" width="294" height="40" rx="20" fill="#e6ded3"/>
    <rect x="184" y="312" width="364" height="34" rx="17" fill="#dfd8cd"/>
    <rect x="184" y="394" width="330" height="34" rx="17" fill="#dfd8cd"/>
    <rect x="184" y="476" width="286" height="34" rx="17" fill="#dfd8cd"/>
    <rect x="184" y="558" width="178" height="34" rx="17" fill="#d5e2da"/>
    <rect x="380" y="558" width="144" height="34" rx="17" fill="#efe6da"/>
    <circle cx="574" cy="330" r="16" fill="#ff9637"/>
    <circle cx="536" cy="412" r="16" fill="#ff9637"/>
    <circle cx="496" cy="494" r="16" fill="#ff9637"/>

    <rect x="184" y="688" width="402" height="384" rx="42" fill="url(#inkPanel)"/>
    <rect x="244" y="756" width="190" height="18" rx="9" fill="#324259"/>
    <rect x="244" y="792" width="166" height="18" rx="9" fill="#324259"/>
    <rect x="244" y="828" width="132" height="18" rx="9" fill="#324259"/>
    <circle cx="484" cy="792" r="18" fill="#ff7a1a"/>

    <rect x="244" y="900" width="284" height="118" rx="28" fill="#fff2e4" stroke="#ffc691" stroke-width="3"/>
    <path d="M386 926 C 352 926, 326 948, 326 982 C 326 1038, 386 1062, 386 1062 C 386 1062, 446 1038, 446 982 C 446 948, 420 926, 386 926 Z" fill="#08111f"/>
    <path d="M360 986 L 382 1008 L 416 964" fill="none" stroke="#ff8f31" stroke-width="12" stroke-linecap="round" stroke-linejoin="round"/>
  </g>

  <path d="M684 330 C 772 330, 758 622, 854 622 L 924 622" fill="none" stroke="#dad6d0" stroke-width="22" stroke-linecap="round"/>
  <path d="M684 330 C 772 330, 758 622, 854 622 L 924 622" fill="none" stroke="#ff7317" stroke-width="13" stroke-linecap="round"/>
  <path d="M684 412 C 760 412, 786 910, 874 910 L 936 910" fill="none" stroke="#dad6d0" stroke-width="16" stroke-linecap="round" opacity="0.5"/>
  <path d="M684 412 C 760 412, 786 910, 874 910 L 936 910" fill="none" stroke="#7fb7ad" stroke-width="9" stroke-linecap="round" opacity="0.74"/>

  <g filter="url(#cardShadow)">
    <rect x="806" y="552" width="108" height="108" rx="32" fill="#fff1e3" stroke="#ffc691" stroke-width="3"/>
    <path d="M860 576 C 838 576, 822 590, 822 614 C 822 650, 860 666, 860 666 C 860 666, 898 650, 898 614 C 898 590, 882 576, 860 576 Z" fill="#08111f"/>
    <path d="M844 618 L 858 632 L 880 604" fill="none" stroke="#ff8f31" stroke-width="10" stroke-linecap="round" stroke-linejoin="round"/>
  </g>

  <g filter="url(#shadow)">
    <rect x="732" y="176" width="250" height="178" rx="34" fill="#0b1628" stroke="#223247" stroke-width="2"/>
    <rect x="778" y="224" width="136" height="18" rx="9" fill="#33445b"/>
    <rect x="778" y="260" width="112" height="18" rx="9" fill="#33445b"/>
    <rect x="778" y="296" width="92" height="18" rx="9" fill="#33445b"/>
    <circle cx="926" cy="260" r="18" fill="#ff7a1a"/>
  </g>

  <g filter="url(#shadow)">
    <rect x="718" y="846" width="270" height="206" rx="38" fill="#eef3f0" stroke="#d7e3dd" stroke-width="2"/>
    <rect x="768" y="904" width="116" height="16" rx="8" fill="#c8dbd3"/>
    <rect x="768" y="940" width="92" height="16" rx="8" fill="#c8dbd3"/>
    <rect x="768" y="976" width="74" height="16" rx="8" fill="#c8dbd3"/>
    <circle cx="918" cy="940" r="18" fill="#7fb7ad"/>
  </g>

  <rect x="858" y="420" width="98" height="98" rx="49" fill="#ff6b15" filter="url(#cardShadow)"/>
  <rect x="901" y="444" width="12" height="50" rx="6" fill="#fff8f0"/>
  <rect x="882" y="463" width="50" height="12" rx="6" fill="#fff8f0"/>
</svg>
