<svg xmlns="http://www.w3.org/2000/svg" viewBox="0 0 1200 628" role="img" aria-labelledby="title desc">
  <title id="title">Trusted Bums primary warm route campaign plate</title>
  <desc id="desc">Text-free landscape plate showing cluttered cold outreach on the left and a trusted route to a calm buyer conversation on the right.</desc>
  <defs>
    <linearGradient id="bg" x1="40" y1="48" x2="1160" y2="580" gradientUnits="userSpaceOnUse">
      <stop stop-color="#08111f"/>
      <stop offset="1" stop-color="#15263a"/>
    </linearGradient>
    <linearGradient id="orange" x1="230" y1="150" x2="760" y2="472" gradientUnits="userSpaceOnUse">
      <stop stop-color="#ff8a1f"/>
      <stop offset="1" stop-color="#f15a16"/>
    </linearGradient>
    <linearGradient id="teal" x1="722" y1="170" x2="1004" y2="470" gradientUnits="userSpaceOnUse">
      <stop stop-color="#2ea49b"/>
      <stop offset="1" stop-color="#178b83"/>
    </linearGradient>
    <filter id="shadow" x="-20%" y="-20%" width="140%" height="140%">
      <feDropShadow dx="0" dy="18" stdDeviation="18" flood-color="#02060d" flood-opacity="0.22"/>
    </filter>
  </defs>

  <rect width="1200" height="628" rx="36" fill="#fff8ef"/>
  <rect x="24" y="24" width="1152" height="580" rx="30" fill="url(#bg)"/>

  <circle cx="1046" cy="122" r="78" fill="#ff7a1a" opacity="0.22"/>
  <circle cx="1010" cy="500" r="112" fill="#178b83" opacity="0.18"/>
  <circle cx="162" cy="508" r="94" fill="#ff7a1a" opacity="0.08"/>

  <g opacity="0.9">
    <rect x="92" y="138" width="266" height="58" rx="22" fill="#f4ede4" opacity="0.92"/>
    <rect x="92" y="218" width="236" height="58" rx="22" fill="#f4ede4" opacity="0.86"/>
    <rect x="92" y="298" width="282" height="58" rx="22" fill="#f4ede4" opacity="0.8"/>
    <rect x="92" y="378" width="248" height="58" rx="22" fill="#f4ede4" opacity="0.74"/>
    <circle cx="322" cy="167" r="14" fill="#ff7a1a"/>
    <circle cx="292" cy="247" r="14" fill="#ff7a1a"/>
    <circle cx="338" cy="327" r="14" fill="#ff7a1a"/>
    <circle cx="304" cy="407" r="14" fill="#ff7a1a"/>
  </g>

  <path d="M228 170c104 4 184 28 242 74 56 44 95 67 118 67 25 0 54-18 88-55 63-68 127-102 190-102" fill="none" stroke="#fff8ef" stroke-width="24" stroke-linecap="round" opacity="0.14"/>
  <path d="M228 170c104 4 184 28 242 74 56 44 95 67 118 67 25 0 54-18 88-55 63-68 127-102 190-102" fill="none" stroke="url(#orange)" stroke-width="10" stroke-linecap="round"/>

  <circle cx="524" cy="310" r="72" fill="url(#orange)" filter="url(#shadow)"/>
  <circle cx="524" cy="286" r="28" fill="#fff8ef"/>
  <path d="M472 356c10-34 28-52 52-52 24 0 42 18 52 52" fill="#fff8ef"/>

  <g filter="url(#shadow)">
    <rect x="782" y="164" width="298" height="248" rx="34" fill="#fff8ef"/>
    <rect x="824" y="206" width="214" height="132" rx="24" fill="#0d1828"/>
    <path d="M856 244h150" stroke="#fff8ef" stroke-width="12" stroke-linecap="round" opacity="0.24"/>
    <path d="M856 284h110" stroke="#fff8ef" stroke-width="12" stroke-linecap="round" opacity="0.24"/>
    <circle cx="936" cy="272" r="54" fill="url(#teal)"/>
    <circle cx="936" cy="254" r="20" fill="#fff8ef"/>
    <path d="M900 312c8-28 20-42 36-42 16 0 28 14 36 42" fill="#fff8ef"/>
  </g>

  <rect x="758" y="438" width="332" height="72" rx="30" fill="#ffffff" opacity="0.1"/>
  <rect x="94" y="470" width="310" height="72" rx="30" fill="#ffffff" opacity="0.06"/>
  <circle cx="716" cy="214" r="12" fill="#178b83"/>
  <circle cx="772" cy="182" r="9" fill="#fff8ef"/>
  <circle cx="744" cy="404" r="11" fill="#ff7a1a"/>
</svg>
