<svg xmlns="http://www.w3.org/2000/svg" width="1600" height="900" viewBox="0 0 1600 900" role="img" aria-labelledby="title desc">
  <title>Trusted Bums buyer briefing hero plate</title>
  <desc>Text-free wide illustration with one buyer briefing board, a trust checkpoint, and a protected review surface.</desc>
  <defs>
    <linearGradient id="heroBg" x1="0%" y1="0%" x2="100%" y2="100%">
      <stop offset="0%" stop-color="#f9f2e8"/>
      <stop offset="100%" stop-color="#f5eee4"/>
    </linearGradient>
    <linearGradient id="darkPanel" x1="0%" y1="0%" x2="100%" y2="100%">
      <stop offset="0%" stop-color="#08111f"/>
      <stop offset="100%" stop-color="#11233b"/>
    </linearGradient>
    <filter id="shadow" x="-20%" y="-20%" width="140%" height="140%">
      <feDropShadow dx="0" dy="16" stdDeviation="24" flood-color="#020712" flood-opacity="0.18"/>
    </filter>
  </defs>

  <rect width="1600" height="900" fill="url(#heroBg)"/>
  <circle cx="238" cy="194" r="110" fill="#ff8a24" opacity="0.08"/>
  <circle cx="1388" cy="172" r="120" fill="#178b83" opacity="0.06"/>
  <ellipse cx="1338" cy="770" rx="190" ry="132" fill="#178b83" opacity="0.08"/>

  <rect x="112" y="204" width="606" height="492" rx="48" fill="#fbf6ee" stroke="#eadcca" stroke-width="3" filter="url(#shadow)"/>
  <rect x="178" y="270" width="276" height="44" rx="22" fill="#e5ddd2"/>
  <rect x="178" y="370" width="418" height="34" rx="17" fill="#e0dacf"/>
  <rect x="178" y="448" width="376" height="34" rx="17" fill="#e0dacf"/>
  <rect x="178" y="526" width="332" height="34" rx="17" fill="#e0dacf"/>
  <circle cx="612" cy="388" r="17" fill="#ff9537"/>
  <circle cx="566" cy="466" r="17" fill="#ff9537"/>
  <circle cx="524" cy="544" r="17" fill="#ff9537"/>
  <rect x="178" y="614" width="188" height="34" rx="17" fill="#dce7df"/>
  <rect x="392" y="614" width="246" height="34" rx="17" fill="#eee5d8"/>

  <path d="M718 390 C 836 390, 826 640, 976 640 L 1100 640" fill="none" stroke="#d7d4cf" stroke-width="24" stroke-linecap="round"/>
  <path d="M718 390 C 836 390, 826 640, 976 640 L 1100 640" fill="none" stroke="#ff7317" stroke-width="14" stroke-linecap="round"/>

  <rect x="836" y="492" width="108" height="108" rx="32" fill="#fff2e4" stroke="#ffc895" stroke-width="3" filter="url(#shadow)"/>
  <circle cx="890" cy="548" r="20" fill="#08111f"/>
  <path d="M870 594 L 910 594 L 898 564 L 882 564 Z" fill="#08111f"/>
  <rect x="944" y="540" width="34" height="12" rx="6" fill="#178b83"/>

  <g filter="url(#shadow)">
    <rect x="1094" y="194" width="366" height="510" rx="52" fill="url(#darkPanel)"/>
    <rect x="1164" y="266" width="160" height="240" rx="38" fill="#fbf5eb"/>
    <rect x="1198" y="308" width="90" height="20" rx="10" fill="#d8d2ca"/>
    <rect x="1198" y="354" width="72" height="20" rx="10" fill="#d8d2ca"/>
    <rect x="1198" y="400" width="84" height="20" rx="10" fill="#c5ddd2"/>
    <rect x="1334" y="290" width="90" height="180" rx="26" fill="#0a1424" stroke="#233247" stroke-width="3"/>
    <circle cx="1379" cy="354" r="36" fill="#fbf5eb"/>
    <path d="M1338 434 Q 1379 340 1420 434 Z" fill="#fbf5eb"/>
    <rect x="1170" y="562" width="214" height="24" rx="12" fill="#364255"/>
    <rect x="1170" y="614" width="168" height="24" rx="12" fill="#364255"/>
    <rect x="1170" y="666" width="142" height="24" rx="12" fill="#175d62"/>
  </g>

  <rect x="1356" y="180" width="88" height="88" rx="44" fill="#ff6c16" filter="url(#shadow)"/>
  <rect x="1394" y="202" width="12" height="44" rx="6" fill="#fff8ef"/>
  <rect x="1378" y="218" width="44" height="12" rx="6" fill="#fff8ef"/>
</svg>
