<svg xmlns="http://www.w3.org/2000/svg" width="1080" height="1350" viewBox="0 0 1080 1350" role="img" aria-labelledby="title desc">
  <title>Trusted Bums proof dossier paid social plate</title>
  <desc>Text-free portrait illustration with one account dossier feeding a protected buyer review stack.</desc>
  <defs>
    <linearGradient id="portraitBg" x1="0%" y1="0%" x2="100%" y2="100%">
      <stop offset="0%" stop-color="#f8f1e7"/>
      <stop offset="100%" stop-color="#f4eee5"/>
    </linearGradient>
    <filter id="drop" x="-20%" y="-20%" width="140%" height="140%">
      <feDropShadow dx="0" dy="16" stdDeviation="24" flood-color="#04101c" flood-opacity="0.16"/>
    </filter>
    <filter id="heavy" x="-20%" y="-20%" width="140%" height="140%">
      <feDropShadow dx="0" dy="24" stdDeviation="30" flood-color="#030a14" flood-opacity="0.22"/>
    </filter>
  </defs>

  <rect width="1080" height="1350" fill="url(#portraitBg)"/>
  <circle cx="280" cy="154" r="110" fill="#ff8a24" opacity="0.08"/>
  <circle cx="874" cy="244" r="146" fill="#178b83" opacity="0.07"/>
  <circle cx="228" cy="1188" r="140" fill="#178b83" opacity="0.08"/>

  <g filter="url(#heavy)">
    <rect x="180" y="128" width="520" height="1082" rx="54" fill="#fbf6ee" stroke="#e5d7c8" stroke-width="3"/>
    <rect x="236" y="202" width="284" height="46" rx="23" fill="#e7e1d8"/>
    <rect x="236" y="308" width="370" height="36" rx="18" fill="#e2ddd5"/>
    <rect x="236" y="392" width="336" height="36" rx="18" fill="#e2ddd5"/>
    <rect x="236" y="476" width="302" height="36" rx="18" fill="#e2ddd5"/>
    <circle cx="616" cy="326" r="18" fill="#ff983b"/>
    <circle cx="570" cy="410" r="18" fill="#ff983b"/>
    <circle cx="532" cy="494" r="18" fill="#ff983b"/>

    <rect x="236" y="610" width="266" height="356" rx="36" fill="#0a1424"/>
    <circle cx="368" cy="716" r="58" fill="#fbf6ee"/>
    <path d="M298 834 Q 368 684 438 834 Z" fill="#fbf6ee"/>
    <rect x="286" y="896" width="164" height="24" rx="12" fill="#ff7a1a"/>

    <rect x="538" y="786" width="116" height="180" rx="28" fill="#efe8df"/>
    <rect x="564" y="820" width="64" height="18" rx="9" fill="#d5cec5"/>
    <rect x="564" y="856" width="52" height="18" rx="9" fill="#d5cec5"/>
    <rect x="564" y="892" width="58" height="18" rx="9" fill="#c9ddd5"/>
  </g>

  <path d="M700 470 C 780 470, 756 926, 836 926" fill="none" stroke="#d9d6d1" stroke-width="26" stroke-linecap="round"/>
  <path d="M700 470 C 780 470, 756 926, 836 926" fill="none" stroke="#ff7317" stroke-width="16" stroke-linecap="round"/>

  <g filter="url(#drop)">
    <rect x="760" y="402" width="236" height="236" rx="42" fill="#0c1830"/>
    <circle cx="878" cy="494" r="54" fill="#fbf6ee"/>
    <path d="M816 586 Q 878 448 940 586 Z" fill="#fbf6ee"/>
    <rect x="818" y="662" width="140" height="22" rx="11" fill="#2d3749"/>
  </g>

  <g filter="url(#drop)">
    <rect x="716" y="730" width="312" height="368" rx="44" fill="#0c1830"/>
    <rect x="782" y="798" width="144" height="228" rx="34" fill="#fbf5eb"/>
    <rect x="818" y="840" width="72" height="18" rx="9" fill="#d8d2ca"/>
    <rect x="818" y="888" width="84" height="18" rx="9" fill="#d8d2ca"/>
    <rect x="818" y="936" width="76" height="18" rx="9" fill="#c3ddd3"/>
    <circle cx="974" cy="868" r="30" fill="#ff7a1a"/>
    <rect x="780" y="1060" width="186" height="24" rx="12" fill="#364052"/>
  </g>

  <rect x="848" y="274" width="98" height="98" rx="49" fill="#ff6b15" filter="url(#drop)"/>
  <rect x="892" y="298" width="12" height="50" rx="6" fill="#fff8f0"/>
  <rect x="873" y="317" width="50" height="12" rx="6" fill="#fff8f0"/>
</svg>
