<?xml version="1.0" encoding="UTF-8"?>
<svg xmlns="http://www.w3.org/2000/svg" width="960" height="540" viewBox="0 0 1280 720">
  <style>
    text { paint-order: stroke; stroke: transparent; }
  </style>
  
    <rect width="1280" height="720" fill="#fff8ef"/>
    <path d="M 0 590 C 220 540 345 646 560 600 C 805 548 1016 548 1280 604 L 1280 720 L 0 720 Z" fill="#fff0df" opacity="0.74"/>
    <path d="M 66 88 H 1214" stroke="#eedbc7" stroke-width="2" stroke-linecap="round" stroke-dasharray="8 18" opacity="0.9"/>
    <text x="66" y="58" font-family="DejaVu Sans" font-size="22" font-weight="800" fill="#ff7a1a">TRUSTED BUMS</text>
    <text x="1214" y="58" text-anchor="end" font-family="DejaVu Sans" font-size="18" font-weight="700" fill="#5e6470">Bring Us More Sales</text>
    <text x="76" y="504" text-anchor="start" font-family="DejaVu Sans" font-size="43" font-weight="900" fill="#08111f" opacity="0.15624999999999994">Welcome to Trusted Bums.</text>
    <text x="78" y="552" text-anchor="start" font-family="DejaVu Sans" font-size="24" font-weight="600" fill="#5e6470" opacity="0.15624999999999994">Be thoughtful. Be credible. Bring Us More Sales.</text>
    <circle cx="468" cy="650" r="5" fill="#d8c7b4" opacity="0.95"/><circle cx="526" cy="650" r="5" fill="#d8c7b4" opacity="0.95"/><circle cx="584" cy="650" r="5" fill="#d8c7b4" opacity="0.95"/><circle cx="642" cy="650" r="5" fill="#d8c7b4" opacity="0.95"/><circle cx="700" cy="650" r="5" fill="#d8c7b4" opacity="0.95"/><circle cx="758" cy="650" r="5" fill="#d8c7b4" opacity="0.95"/><circle cx="816" cy="650" r="7" fill="#ff7a1a" opacity="0.95"/>
  
  
    <path d="M 382 190 A 58 58 0 1 1 381.9 190 Z" pathLength="1000" fill="none" stroke="#08111f" stroke-width="8" stroke-linecap="round" stroke-linejoin="round" stroke-dasharray="1000" stroke-dashoffset="107.27484309496104" opacity="1"/>
    <path d="M 640 148 A 70 70 0 1 1 639.9 148 Z" pathLength="1000" fill="none" stroke="#ff7a1a" stroke-width="10" stroke-linecap="round" stroke-linejoin="round" stroke-dasharray="1000" stroke-dashoffset="107.27484309496104" opacity="1"/>
    <path d="M 898 190 A 58 58 0 1 1 897.9 190 Z" pathLength="1000" fill="none" stroke="#08111f" stroke-width="8" stroke-linecap="round" stroke-linejoin="round" stroke-dasharray="1000" stroke-dashoffset="107.27484309496104" opacity="1"/>
    <path d="M 438 248 C 510 160 576 157 640 218 C 705 157 770 160 842 248" pathLength="1000" fill="none" stroke="#ff7a1a" stroke-width="8" stroke-linecap="round" stroke-linejoin="round" stroke-dasharray="1000" stroke-dashoffset="215.99999999999986" opacity="1"/>
    <path d="M 420 342 C 540 410 742 410 860 342" pathLength="1000" fill="none" stroke="#08111f" stroke-width="8" stroke-linecap="round" stroke-linejoin="round" stroke-dasharray="1000" stroke-dashoffset="752.6701281266656" opacity="1"/>
    <text x="640" y="326" text-anchor="middle" font-family="DejaVu Sans" font-size="52" font-weight="950" fill="#ff7a1a" opacity="0.3360768175582992">BRING US</text><text x="640" y="385" text-anchor="middle" font-family="DejaVu Sans" font-size="52" font-weight="950" fill="#ff7a1a" opacity="0.3360768175582992">MORE SALES</text>
  
</svg>
