<?xml version="1.0" encoding="UTF-8"?>
<svg xmlns="http://www.w3.org/2000/svg" width="960" height="540" viewBox="0 0 1280 720">
  <style>
    text { paint-order: stroke; stroke: transparent; }
  </style>
  
    <rect width="1280" height="720" fill="#fff8ef"/>
    <path d="M 0 590 C 220 540 345 646 560 600 C 805 548 1016 548 1280 604 L 1280 720 L 0 720 Z" fill="#fff0df" opacity="0.74"/>
    <path d="M 66 88 H 1214" stroke="#eedbc7" stroke-width="2" stroke-linecap="round" stroke-dasharray="8 18" opacity="0.9"/>
    <text x="66" y="58" font-family="DejaVu Sans" font-size="22" font-weight="800" fill="#ff7a1a">TRUSTED BUMS</text>
    <text x="1214" y="58" text-anchor="end" font-family="DejaVu Sans" font-size="18" font-weight="700" fill="#5e6470">Welcome</text>
    <text x="76" y="504" text-anchor="start" font-family="DejaVu Sans" font-size="43" font-weight="900" fill="#08111f" opacity="0.15624999999999994">You are officially a Bum.</text>
    <text x="78" y="552" text-anchor="start" font-family="DejaVu Sans" font-size="24" font-weight="600" fill="#5e6470" opacity="0.15624999999999994">That means you bring trusted relationships into places</text><text x="78" y="585" text-anchor="start" font-family="DejaVu Sans" font-size="24" font-weight="600" fill="#5e6470" opacity="0.15624999999999994">cold outreach cannot reach.</text>
    <circle cx="468" cy="650" r="7" fill="#ff7a1a" opacity="0.95"/><circle cx="526" cy="650" r="5" fill="#d8c7b4" opacity="0.95"/><circle cx="584" cy="650" r="5" fill="#d8c7b4" opacity="0.95"/><circle cx="642" cy="650" r="5" fill="#d8c7b4" opacity="0.95"/><circle cx="700" cy="650" r="5" fill="#d8c7b4" opacity="0.95"/><circle cx="758" cy="650" r="5" fill="#d8c7b4" opacity="0.95"/><circle cx="816" cy="650" r="5" fill="#d8c7b4" opacity="0.95"/>
  
  
    <path d="M 640 94 A 142 142 0 1 1 639.9 94 Z" pathLength="1000" fill="none" stroke="#08111f" stroke-width="10" stroke-linecap="round" stroke-linejoin="round" stroke-dasharray="1000" stroke-dashoffset="4.6720000000000095" opacity="1"/>
    <path d="M 586 236 L 626 278 L 704 188" pathLength="1000" fill="none" stroke="#1f9d70" stroke-width="16" stroke-linecap="round" stroke-linejoin="round" stroke-dasharray="1000" stroke-dashoffset="11.23046875" opacity="1"/>
    <path d="M 520 356 H 760 Q 782 356 782 378 V 410 Q 782 432 760 432 H 520 Q 498 432 498 410 V 378 Q 498 356 520 356" pathLength="1000" fill="none" stroke="#ff7a1a" stroke-width="8" stroke-linecap="round" stroke-linejoin="round" stroke-dasharray="1000" stroke-dashoffset="51.82664315880115" opacity="1"/>
    <text x="640" y="405" text-anchor="middle" font-family="DejaVu Sans" font-size="34" font-weight="900" fill="#ff7a1a" opacity="0.7913698351312841">APPROVED</text>
    <path d="M 465 144 L 423 103 M 813 144 L 856 103 M 454 317 L 397 342 M 830 317 L 884 342" pathLength="1000" fill="none" stroke="#ffc44d" stroke-width="8" stroke-linecap="round" stroke-linejoin="round" stroke-dasharray="1000" stroke-dashoffset="881.9241982507289" opacity="1"/>
    <path d="M 638 78 L 656 116 L 699 121 L 668 151 L 676 194 L 638 173 L 600 194 L 608 151 L 577 121 L 620 116 Z" fill="#ff7a1a" opacity="0.12426151692203363"/>
  
</svg>
