<?xml version="1.0" encoding="UTF-8"?>
<svg xmlns="http://www.w3.org/2000/svg" width="960" height="540" viewBox="0 0 1280 720">
  <style>
    text { paint-order: stroke; stroke: transparent; }
  </style>
  
    <rect width="1280" height="720" fill="#fff8ef"/>
    <path d="M 0 590 C 220 540 345 646 560 600 C 805 548 1016 548 1280 604 L 1280 720 L 0 720 Z" fill="#fff0df" opacity="0.74"/>
    <path d="M 66 88 H 1214" stroke="#eedbc7" stroke-width="2" stroke-linecap="round" stroke-dasharray="8 18" opacity="0.9"/>
    <text x="66" y="58" font-family="DejaVu Sans" font-size="22" font-weight="800" fill="#ff7a1a">TRUSTED BUMS</text>
    <text x="1214" y="58" text-anchor="end" font-family="DejaVu Sans" font-size="18" font-weight="700" fill="#5e6470">Alignment</text>
    <text x="76" y="504" text-anchor="start" font-family="DejaVu Sans" font-size="43" font-weight="900" fill="#08111f" opacity="0">Track outcomes and earnings.</text>
    <text x="78" y="552" text-anchor="start" font-family="DejaVu Sans" font-size="24" font-weight="600" fill="#5e6470" opacity="0">The portal keeps claims, meetings, revenue,</text><text x="78" y="585" text-anchor="start" font-family="DejaVu Sans" font-size="24" font-weight="600" fill="#5e6470" opacity="0">commissions, and approvals aligned.</text>
    <circle cx="468" cy="650" r="5" fill="#d8c7b4" opacity="0.95"/><circle cx="526" cy="650" r="5" fill="#d8c7b4" opacity="0.95"/><circle cx="584" cy="650" r="5" fill="#d8c7b4" opacity="0.95"/><circle cx="642" cy="650" r="5" fill="#d8c7b4" opacity="0.95"/><circle cx="700" cy="650" r="5" fill="#d8c7b4" opacity="0.95"/><circle cx="758" cy="650" r="7" fill="#ff7a1a" opacity="0.95"/><circle cx="816" cy="650" r="5" fill="#d8c7b4" opacity="0.95"/>
  
  
    <path d="M 278 300 H 956" pathLength="1000" fill="none" stroke="#ff7a1a" stroke-width="9" stroke-linecap="round" stroke-linejoin="round" stroke-dasharray="1000" stroke-dashoffset="701.6482840624872" opacity="1"/>
    
        <path d="M 218 252 A 48 48 0 1 1 217.9 252 Z" pathLength="1000" fill="none" stroke="#08111f" stroke-width="8" stroke-linecap="round" stroke-linejoin="round" stroke-dasharray="1000" stroke-dashoffset="599.4074074074074" opacity="1"/>
        <text x="218" y="388" text-anchor="middle" font-family="DejaVu Sans" font-size="20" font-weight="900" fill="#5e6470" opacity="0.4005925925925926">Claim</text>
      
        <path d="M 390 252 A 48 48 0 1 1 389.9 252 Z" pathLength="1000" fill="none" stroke="#08111f" stroke-width="8" stroke-linecap="round" stroke-linejoin="round" stroke-dasharray="1000" stroke-dashoffset="896" opacity="1"/>
        <text x="390" y="388" text-anchor="middle" font-family="DejaVu Sans" font-size="20" font-weight="900" fill="#5e6470" opacity="0.10400000000000002">Intro</text>
      
        <path d="M 580 252 A 48 48 0 1 1 579.9 252 Z" pathLength="1000" fill="none" stroke="#08111f" stroke-width="8" stroke-linecap="round" stroke-linejoin="round" stroke-dasharray="1000" stroke-dashoffset="1000" opacity="1"/>
        <text x="580" y="388" text-anchor="middle" font-family="DejaVu Sans" font-size="20" font-weight="900" fill="#5e6470" opacity="0">Meeting</text>
      
        <path d="M 790 252 A 48 48 0 1 1 789.9 252 Z" pathLength="1000" fill="none" stroke="#08111f" stroke-width="8" stroke-linecap="round" stroke-linejoin="round" stroke-dasharray="1000" stroke-dashoffset="1000" opacity="1"/>
        <text x="790" y="388" text-anchor="middle" font-family="DejaVu Sans" font-size="20" font-weight="900" fill="#5e6470" opacity="0">Revenue</text>
      
        <path d="M 1016 252 A 48 48 0 1 1 1015.9 252 Z" pathLength="1000" fill="none" stroke="#08111f" stroke-width="8" stroke-linecap="round" stroke-linejoin="round" stroke-dasharray="1000" stroke-dashoffset="1000" opacity="1"/>
        <text x="1016" y="388" text-anchor="middle" font-family="DejaVu Sans" font-size="20" font-weight="900" fill="#5e6470" opacity="0">Commission</text>
      
    <path d="M 974 280 C 1008 228 1078 246 1082 305 C 1086 364 1006 384 970 332" pathLength="1000" fill="none" stroke="#1f9d70" stroke-width="9" stroke-linecap="round" stroke-linejoin="round" stroke-dasharray="1000" stroke-dashoffset="1000" opacity="1"/>
    <text x="1026" y="322" text-anchor="middle" font-family="DejaVu Sans" font-size="61" font-weight="900" fill="#1f9d70" opacity="0">$</text>
  
</svg>
