<svg xmlns="http://www.w3.org/2000/svg" viewBox="0 0 1200 628" role="img" aria-labelledby="title desc">
  <title id="title">Named account lane illustration</title>
  <desc id="desc">Abstract Trusted Bums ad plate showing clutter resolved into one trusted path toward a protected account.</desc>
  <defs>
    <linearGradient id="bg" x1="82" y1="54" x2="1120" y2="590" gradientUnits="userSpaceOnUse">
      <stop stop-color="#08111f"/>
      <stop offset="1" stop-color="#17243a"/>
    </linearGradient>
    <linearGradient id="orange" x1="312" y1="180" x2="760" y2="458" gradientUnits="userSpaceOnUse">
      <stop stop-color="#ff8a1f"/>
      <stop offset="1" stop-color="#f15a16"/>
    </linearGradient>
    <linearGradient id="cream" x1="236" y1="122" x2="598" y2="492" gradientUnits="userSpaceOnUse">
      <stop stop-color="#fff8ef"/>
      <stop offset="1" stop-color="#f6eadb"/>
    </linearGradient>
    <filter id="shadow" x="-20%" y="-20%" width="140%" height="140%">
      <feDropShadow dx="0" dy="20" stdDeviation="18" flood-color="#02060d" flood-opacity=".28"/>
    </filter>
  </defs>

  <rect width="1200" height="628" fill="url(#bg)"/>
  <circle cx="1062" cy="112" r="78" fill="#ff7a1a" opacity=".15"/>
  <circle cx="962" cy="522" r="118" fill="#178b83" opacity=".12"/>
  <circle cx="164" cy="124" r="92" fill="#fff8ef" opacity=".04"/>
  <path d="M0 566c156-42 250-46 420-14s292 28 430-4 252-32 350-6v86H0Z" fill="#08111f" opacity=".45"/>

  <rect x="74" y="88" width="404" height="452" rx="40" fill="#fff8ef" opacity=".08" stroke="#fff8ef" stroke-opacity=".1" stroke-width="2"/>
  <rect x="120" y="134" width="266" height="54" rx="27" fill="#fff8ef" opacity=".11"/>
  <rect x="120" y="220" width="310" height="46" rx="23" fill="#fff8ef" opacity=".08"/>
  <rect x="120" y="298" width="242" height="46" rx="23" fill="#fff8ef" opacity=".08"/>
  <rect x="120" y="376" width="286" height="46" rx="23" fill="#fff8ef" opacity=".08"/>
  <circle cx="408" cy="243" r="15" fill="#ff7a1a" opacity=".76"/>
  <circle cx="340" cy="321" r="15" fill="#ff7a1a" opacity=".76"/>
  <circle cx="384" cy="399" r="15" fill="#ff7a1a" opacity=".76"/>
  <path d="M502 182c32 0 54 22 54 54v154c0 32 22 54 54 54h44" fill="none" stroke="#fff8ef" stroke-width="14" stroke-linecap="round" opacity=".18"/>
  <path d="M518 182c24 0 38 14 38 38v170c0 28 18 46 46 46h92" fill="none" stroke="url(#orange)" stroke-width="10" stroke-linecap="round"/>

  <g filter="url(#shadow)">
    <rect x="690" y="110" width="414" height="410" rx="40" fill="#fff8ef"/>
    <rect x="728" y="150" width="338" height="72" rx="22" fill="#08111f" opacity=".06"/>
    <rect x="750" y="248" width="114" height="170" rx="24" fill="#08111f"/>
    <rect x="894" y="248" width="150" height="170" rx="26" fill="#f3eee7"/>
    <rect x="918" y="274" width="102" height="20" rx="10" fill="#08111f" opacity=".16"/>
    <rect x="918" y="312" width="86" height="20" rx="10" fill="#08111f" opacity=".12"/>
    <rect x="918" y="350" width="68" height="20" rx="10" fill="#178b83" opacity=".22"/>
    <circle cx="807" cy="300" r="40" fill="#fff8ef"/>
    <path d="M764 372c12-38 27-58 43-58s31 20 43 58" fill="#fff8ef"/>
    <path d="M864 333h42" stroke="#ff7a1a" stroke-width="12" stroke-linecap="round"/>
    <path d="M1000 240v-42" stroke="#08111f" stroke-width="12" stroke-linecap="round" opacity=".12"/>
    <circle cx="1000" cy="182" r="38" fill="url(#orange)"/>
    <path d="M984 182h32" stroke="#fff8ef" stroke-width="10" stroke-linecap="round"/>
    <path d="M1000 166v32" stroke="#fff8ef" stroke-width="10" stroke-linecap="round"/>
    <rect x="746" y="446" width="312" height="26" rx="13" fill="#08111f" opacity=".08"/>
  </g>

  <rect x="602" y="246" width="86" height="86" rx="26" fill="url(#cream)" stroke="#ffcfaa" stroke-width="3"/>
  <circle cx="645" cy="290" r="18" fill="#08111f"/>
  <path d="M626 318c5-17 11-25 19-25s14 8 19 25" fill="#08111f"/>
  <path d="M686 290h28" stroke="#178b83" stroke-width="10" stroke-linecap="round"/>
  <circle cx="714" cy="290" r="12" fill="#178b83"/>
</svg>
